HIERARCHY
ROOT Hips
{
	OFFSET -0.001795 -0.223333 0.028219
	CHANNELS 6 Xposition Yposition Zposition Zrotation Yrotation Xrotation
	JOINT LeftUpLeg
	{
		OFFSET 0.069520 -0.091406 -0.006815
		CHANNELS 3 Zrotation Yrotation Xrotation
		JOINT LeftLeg
		{
			OFFSET 0.034277 -0.375199 -0.004496
			CHANNELS 3 Zrotation Yrotation Xrotation
			JOINT LeftFoot
			{
				OFFSET -0.013596 -0.397961 -0.043693
				CHANNELS 3 Zrotation Yrotation Xrotation
				JOINT LeftToe
				{
					OFFSET 0.026358 -0.055791 0.119288
					CHANNELS 3 Zrotation Yrotation Xrotation
					End Site
					{
						OFFSET 0.000000 0.000000 0.000000
					}
				}
			}
		}
	}
	JOINT RightUpLeg
	{
		OFFSET -0.067670 -0.090522 -0.004320
		CHANNELS 3 Zrotation Yrotation Xrotation
		JOINT RightLeg
		{
			OFFSET -0.038290 -0.382569 -0.008850
			CHANNELS 3 Zrotation Yrotation Xrotation
			JOINT RightFoot
			{
				OFFSET 0.015774 -0.398415 -0.042312
				CHANNELS 3 Zrotation Yrotation Xrotation
				JOINT RightToe
				{
					OFFSET -0.025372 -0.048144 0.123348
					CHANNELS 3 Zrotation Yrotation Xrotation
					End Site
					{
						OFFSET 0.000000 0.000000 0.000000
					}
				}
			}
		}
	}
	JOINT Spine
	{
		OFFSET -0.002533 0.108963 -0.026696
		CHANNELS 3 Zrotation Yrotation Xrotation
		JOINT Spine1
		{
			OFFSET 0.005487 0.135180 0.001092
			CHANNELS 3 Zrotation Yrotation Xrotation
			JOINT Spine2
			{
				OFFSET 0.001457 0.052922 0.025425
				CHANNELS 3 Zrotation Yrotation Xrotation
				JOINT Neck
				{
					OFFSET -0.002778 0.213870 -0.042857
					CHANNELS 3 Zrotation Yrotation Xrotation
					JOINT Head
					{
						OFFSET 0.005152 0.064970 0.051349
						CHANNELS 3 Zrotation Yrotation Xrotation
						End Site
						{
							OFFSET 0.000000 0.000000 0.000000
						}
					}
				}
				JOINT LeftShoulder
				{
					OFFSET 0.078845 0.121749 -0.034090
					CHANNELS 3 Zrotation Yrotation Xrotation
					JOINT LeftArm
					{
						OFFSET 0.090977 0.030469 -0.008868
						CHANNELS 3 Zrotation Yrotation Xrotation
						JOINT LeftForeArm
						{
							OFFSET 0.259612 -0.012772 -0.027456
							CHANNELS 3 Zrotation Yrotation Xrotation
							JOINT LeftHand
							{
								OFFSET 0.249234 0.008986 -0.001171
								CHANNELS 3 Zrotation Yrotation Xrotation
								End Site
								{
									OFFSET 0.000000 0.000000 0.000000
								}
							}
						}
					}
				}
				JOINT RightShoulder
				{
					OFFSET -0.081759 0.118833 -0.038615
					CHANNELS 3 Zrotation Yrotation Xrotation
					JOINT RightArm
					{
						OFFSET -0.096012 0.032551 -0.009143
						CHANNELS 3 Zrotation Yrotation Xrotation
						JOINT RightForeArm
						{
							OFFSET -0.253742 -0.013329 -0.021401
							CHANNELS 3 Zrotation Yrotation Xrotation
							JOINT RightHand
							{
								OFFSET -0.255298 0.007772 -0.005559
								CHANNELS 3 Zrotation Yrotation Xrotation
								End Site
								{
									OFFSET 0.000000 0.000000 0.000000
								}
							}
						}
					}
				}
			}
		}
	}
}
MOTION
Frames: 17
Frame Time: 0.050000
0.000000 0.932405 0.000000 -1.745339 13.692358 -4.047304 2.559779 0.380038 12.940045 -3.131372 0.256921 -5.594226 4.037866 9.734161 4.579587 0.000000 0.000000 0.000000 -3.044167 -0.554213 5.472811 1.643644 -0.174557 6.370991 -4.475205 -11.879902 6.682050 0.000000 0.000000 0.000000 -4.844538 -0.123919 9.436113 9.170244 -2.063094 -17.521841 -4.408400 -2.000807 22.580462 2.057367 1.595139 -27.917470 0.000000 0.000000 0.000000 -55.165965 -0.455931 -10.884759 -26.170842 0.897200 -3.050943 4.166566 -19.331811 0.055846 0.000000 0.000000 0.000000 49.643188 5.557200 5.687537 27.335919 10.070160 -2.977275 -7.502925 19.798618 -0.376231 0.000000 0.000000 0.000000
0.008306 0.932306 -0.002585 -0.978228 12.713189 -3.818508 0.999822 0.662524 13.366105 -3.098122 0.261786 -6.364445 4.313543 10.351050 5.015670 0.000000 0.000000 0.000000 -4.120046 -0.339665 3.505048 0.863304 -0.000265 9.425287 -4.228327 -11.344487 6.619366 0.000000 0.000000 0.000000 -5.856901 -0.036992 8.219338 9.548775 -2.159250 -18.022579 -5.916111 -1.175859 25.153117 4.020900 0.759602 -30.351633 0.000000 0.000000 0.000000 -55.005040 1.499231 -12.926726 -26.541033 0.313941 -3.070352 4.412177 -20.161064 0.027934 0.000000 0.000000 0.000000 51.693399 4.240702 4.898211 27.610539 12.685817 -2.820959 -8.313002 20.008975 -0.446071 0.000000 0.000000 0.000000
0.015557 0.930548 -0.005561 -0.807780 13.064218 -3.283005 0.586922 0.679682 12.489168 -3.553324 0.271488 -5.948613 4.328757 10.073117 4.136674 0.000000 0.000000 0.000000 -3.701009 -0.070927 0.129268 -0.481084 0.297276 14.546454 -5.091656 -13.161713 6.649232 0.000000 0.000000 0.000000 -5.962724 -0.021013 7.599312 9.035701 -2.051869 -17.256519 -6.046919 -2.608427 26.388992 2.742339 0.948944 -27.278120 0.000000 0.000000 0.000000 -54.321959 0.546647 -10.773631 -27.801368 -0.926590 -3.250628 6.522794 -19.364029 -0.294095 0.000000 0.000000 0.000000 51.678236 5.782858 5.565938 27.482165 12.349013 -2.729101 -7.925734 19.011653 -0.387231 0.000000 0.000000 0.000000
0.021732 0.929970 -0.008549 -0.281442 13.928130 -4.351163 -0.614657 0.880102 13.897844 -2.904440 0.246816 -6.399098 3.941759 9.332415 3.963862 0.000000 0.000000 0.000000 -4.020287 0.113930 -2.996449 -0.646717 0.188649 21.897034 -6.795471 -16.520917 9.732677 0.000000 0.000000 0.000000 -6.861654 -0.008974 9.197420 10.025334 -2.314447 -17.885070 -6.832327 -3.235925 27.708932 2.963646 0.923207 -29.180028 0.000000 0.000000 0.000000 -56.269954 0.951144 -11.567460 -26.240142 -1.200638 -3.062316 5.435031 -20.532834 -0.109850 0.000000 0.000000 0.000000 53.815126 6.095913 5.851626 25.350637 12.103206 -2.692936 -8.699423 19.504040 -0.540648 0.000000 0.000000 0.000000
0.026066 0.930530 -0.010982 -0.723089 15.520966 -5.560636 0.162050 0.717452 14.584931 -3.561252 0.249759 -5.781490 3.283018 8.012518 3.539073 0.000000 0.000000 0.000000 -3.214761 0.324523 -6.019835 -0.566314 -0.280172 28.661327 -8.977281 -20.129762 13.621859 0.000000 0.000000 0.000000 -7.244887 -0.048055 11.551676 11.104959 -2.701168 -17.690518 -7.293211 -3.569854 27.476353 3.480686 0.710608 -29.133634 0.000000 0.000000 0.000000 -56.563874 -0.625777 -10.422796 -24.827515 -0.856953 -2.859744 5.276827 -20.754306 -0.098745 0.000000 0.000000 0.000000 54.431335 6.228501 6.340013 24.355022 11.930804 -2.688048 -7.661543 19.333133 -0.416826 0.000000 0.000000 0.000000
0.029111 0.931064 -0.011118 -0.949536 16.946714 -6.875169 0.575923 0.605333 15.735033 -3.802768 0.244506 -5.461469 2.653060 6.841404 3.382035 0.000000 0.000000 0.000000 -2.627339 0.556879 -9.776413 0.270904 -1.333061 34.958101 -12.425475 -24.872141 19.213060 0.000000 0.000000 0.000000 -8.205630 -0.055195 13.458461 11.700330 -2.808946 -18.393211 -7.318892 -5.019282 28.735666 3.895693 0.402126 -30.067150 0.000000 0.000000 0.000000 -57.276155 -0.439807 -10.197141 -24.359537 -1.928898 -2.764658 4.698651 -20.766266 0.014679 0.000000 0.000000 0.000000 54.406278 7.261148 6.980795 24.425872 10.935606 -2.793994 -7.087223 20.098197 -0.362878 0.000000 0.000000 0.000000
0.031016 0.932606 -0.007681 -1.476826 17.546915 -7.784911 1.156333 0.472088 16.695866 -3.756570 0.238126 -5.342237 2.306519 6.381874 3.687778 0.000000 0.000000 0.000000 -1.733488 0.808583 -13.009816 1.204008 -2.233161 38.010351 -14.549330 -27.845401 20.104026 0.000000 0.000000 0.000000 -8.444992 -0.095095 14.768966 12.093625 -2.885971 -18.943116 -7.316180 -5.690826 29.403990 2.923584 0.863199 -30.064496 0.000000 0.000000 0.000000 -57.052636 -0.440812 -9.798323 -23.713619 -2.056839 -2.753427 2.654406 -22.311276 0.401875 0.000000 0.000000 0.000000 53.865438 7.999918 7.493498 24.594389 10.348452 -2.862780 -6.190989 19.918096 -0.233371 0.000000 0.000000 0.000000
0.032361 0.932754 -0.000636 -2.050239 18.818873 -8.819511 1.923958 0.237012 17.851907 -3.604616 0.224911 -5.084514 1.825647 5.435068 3.456268 0.000000 0.000000 0.000000 -1.346436 0.944618 -16.037585 1.986724 -3.192758 40.178094 -12.477421 -26.064297 12.895504 0.000000 0.000000 0.000000 -8.493334 -0.190665 16.589311 12.531593 -2.959150 -19.479669 -7.192641 -6.386979 30.108791 3.386753 0.413149 -28.421452 0.000000 0.000000 0.000000 -57.544465 -1.196727 -9.093619 -22.783315 -2.430923 -2.617840 1.300882 -23.797227 0.700291 0.000000 0.000000 0.000000 54.235225 8.410221 7.966930 24.178656 9.907099 -2.926883 -6.159081 20.537162 -0.251699 0.000000 0.000000 0.000000
0.033583 0.933316 0.009057 -2.692419 20.056123 -9.595869 2.856553 -0.073954 19.090181 -3.519068 0.207823 -5.311563 1.251308 4.518938 3.597729 0.000000 0.000000 0.000000 -1.219777 0.982903 -18.634301 2.817708 -3.982894 40.715040 -11.413364 -25.316553 7.449315 0.000000 0.000000 0.000000 -8.130847 -0.341201 18.222077 12.956954 -3.059125 -19.726558 -7.385252 -6.215810 29.819305 3.342555 0.491335 -27.522218 0.000000 0.000000 0.000000 -57.543424 -1.827923 -9.100550 -22.312149 -2.796405 -2.395914 0.168774 -24.926133 0.966810 0.000000 0.000000 0.000000 54.659875 8.154546 8.432753 23.930234 10.392698 -2.979541 -6.032062 19.448790 -0.219934 0.000000 0.000000 0.000000
0.035144 0.932359 0.020474 -3.351189 21.847044 -10.230549 4.070803 -0.518044 19.759064 -3.737941 0.198455 -4.797084 0.644742 3.171069 3.056985 0.000000 0.000000 0.000000 -1.853640 0.758719 -21.502742 4.395630 -5.142677 40.250331 -10.807801 -24.242362 5.971568 0.000000 0.000000 0.000000 -8.095493 -0.510932 19.930800 13.794201 -3.305064 -19.867423 -7.329464 -7.047723 29.287154 3.169912 0.522186 -26.665739 0.000000 0.000000 0.000000 -58.272008 -1.680388 -9.597133 -21.052387 -3.664468 -2.096251 -1.043235 -27.052094 1.332354 0.000000 0.000000 0.000000 55.301709 8.690245 9.175196 23.149060 10.383240 -2.915431 -6.771523 19.447155 -0.347482 0.000000 0.000000 0.000000
0.037067 0.931069 0.033803 -3.694875 22.322703 -10.481479 4.533484 -0.702448 20.257822 -3.446034 0.200653 -4.022110 0.636268 2.892857 2.616784 0.000000 0.000000 0.000000 -2.231630 0.584931 -23.895613 5.475817 -5.385134 38.295919 -10.783249 -24.033846 5.844240 0.000000 0.000000 0.000000 -7.338122 -0.714380 21.321039 13.450777 -3.120683 -20.175858 -7.146585 -7.046335 29.350676 3.461614 0.337853 -26.255854 0.000000 0.000000 0.000000 -58.934676 -2.449374 -9.131765 -20.098061 -5.049047 -1.794451 -1.300635 -28.078622 1.449849 0.000000 0.000000 0.000000 55.856055 9.114303 9.942153 22.361262 10.908224 -2.850210 -6.768211 19.055053 -0.350601 0.000000 0.000000 0.000000
0.039267 0.928046 0.049296 -3.618285 22.894752 -10.034553 4.196347 -0.710748 20.755785 -2.379744 0.171725 -4.035760 0.745278 2.659473 1.934167 0.000000 0.000000 0.000000 -2.952031 0.268103 -25.925382 7.451808 -5.664176 34.377439 -11.549920 -25.189569 6.552033 0.000000 0.000000 0.000000 -6.662134 -0.981043 23.289587 13.885637 -3.224353 -20.329197 -6.777141 -7.162794 29.021322 3.587559 0.282641 -26.379139 0.000000 0.000000 0.000000 -59.971648 -3.823341 -7.926376 -19.118934 -6.661757 -1.487258 -1.202224 -29.603890 1.513935 0.000000 0.000000 0.000000 54.745250 10.007556 10.849177 22.291761 12.650976 -2.631652 -7.240668 18.502964 -0.406453 0.000000 0.000000 0.000000
0.041858 0.923521 0.067360 -3.356676 23.583134 -8.975346 3.472872 -0.643113 21.393969 -0.817136 0.132381 -5.049783 0.898198 2.447738 1.192707 0.000000 0.000000 0.000000 -3.369007 0.061620 -26.568390 8.213461 -4.531226 26.489533 -14.139703 -28.021654 11.893966 0.000000 0.000000 0.000000 -5.704124 -1.244390 24.275248 13.278936 -3.006765 -19.995192 -6.203585 -8.696795 28.554960 3.289048 0.213142 -25.944931 0.000000 0.000000 0.000000 -60.738635 -4.597084 -6.246231 -18.502348 -9.483798 -1.230808 -0.437629 -29.866223 1.319578 0.000000 0.000000 0.000000 54.292724 11.687355 11.706306 21.458610 13.255259 -2.331056 -7.595366 18.849539 -0.476006 0.000000 0.000000 0.000000
0.045178 0.917637 0.088346 -3.030629 24.235927 -7.551953 2.765898 -0.492672 20.922151 0.122747 0.093252 -4.044631 1.781544 1.928391 -1.989021 0.000000 0.000000 0.000000 -4.233564 -0.185279 -25.755692 9.038750 -3.207220 16.139473 -18.534008 -30.540264 24.270168 0.000000 0.000000 0.000000 -4.808112 -1.632477 26.108772 13.866639 -3.070159 -20.689481 -6.005153 -9.191776 27.643775 2.915691 0.106878 -23.143910 0.000000 0.000000 0.000000 -59.940913 -5.569296 -4.756031 -18.858718 -11.295980 -1.064080 -0.440794 -31.702357 1.394244 0.000000 0.000000 0.000000 53.507416 12.558039 12.111649 20.423689 15.106019 -1.964756 -7.930962 18.101856 -0.515173 0.000000 0.000000 0.000000
0.049081 0.910906 0.112241 -2.044338 24.942613 -5.122726 2.009340 -0.261396 19.443033 -0.079866 0.069592 -2.533318 2.622943 1.237676 -5.137661 0.000000 0.000000 0.000000 -4.910160 -0.349868 -24.860135 8.415346 -2.178148 9.128926 -18.535628 -28.345705 31.601372 0.000000 0.000000 0.000000 -3.764133 -2.011387 27.291626 13.801325 -2.921784 -20.985028 -5.527536 -9.909897 26.888646 3.608666 -0.342545 -23.920506 0.000000 0.000000 0.000000 -59.324115 -7.773343 -1.745910 -19.054643 -13.700323 -0.856479 1.351393 -31.516414 0.883857 0.000000 0.000000 0.000000 51.854805 15.486337 14.352722 20.228603 15.423547 -1.807498 -9.366732 18.769809 -0.761381 0.000000 0.000000 0.000000
0.053307 0.905144 0.138173 -1.692277 26.186159 -3.157943 1.743810 -0.190433 17.812498 -0.372804 0.004954 0.223393 3.648649 0.793302 -8.219392 0.000000 0.000000 0.000000 -4.654245 -0.360926 -24.929719 7.253947 -1.709323 7.037902 -18.686482 -27.699167 34.248283 0.000000 0.000000 0.000000 -1.869438 -2.906561 29.576988 14.623861 -3.146874 -20.677694 -4.808218 -9.921532 24.828753 3.087682 -0.211464 -21.374059 0.000000 0.000000 0.000000 -58.263825 -10.508334 1.241133 -18.764663 -16.234278 -0.506554 2.842573 -32.347499 0.479464 0.000000 0.000000 0.000000 50.304372 17.522437 16.040053 18.161926 16.574602 -1.578402 -9.420070 19.179937 -0.827790 0.000000 0.000000 0.000000
0.057341 0.897741 0.165493 -1.113931 25.833407 -0.489065 1.640213 -0.014115 14.926177 -1.196951 -0.123734 4.716635 3.984273 -0.859385 -11.053192 0.000000 0.000000 0.000000 -4.915953 -0.534178 -26.800315 7.782705 -1.869184 7.607528 -19.060969 -28.390310 33.512584 0.000000 0.000000 0.000000 -0.021236 -4.046198 32.901212 15.732751 -3.325950 -21.284875 -3.645971 -8.601562 23.426593 3.288127 -0.190402 -21.638051 0.000000 0.000000 0.000000 -56.882533 -13.371817 4.250245 -18.417950 -20.020530 -0.059714 4.473456 -31.890575 0.029244 0.000000 0.000000 0.000000 47.392606 20.603897 18.425944 15.713726 17.840446 -1.441490 -9.740527 19.362180 -0.925799 0.000000 0.000000 0.000000
